<svg xmlns="http://www.w3.org/2000/svg" xmlns:xlink="http://www.w3.org/1999/xlink" width="500" zoomAndPan="magnify" viewBox="0 0 375 374.999991" height="500" preserveAspectRatio="xMidYMid meet" version="1.0"><defs><g><g id="id1"/></g><clipPath id="id2"><path d="M 113 138.078125 L 262.5 138.078125 L 262.5 235.578125 L 113 235.578125 Z M 113 138.078125 " clip-rule="nonzero"/></clipPath><clipPath id="id3"><path d="M 93.988281 93.988281 L 280 93.988281 L 280 280 L 93.988281 280 Z M 93.988281 93.988281 " clip-rule="nonzero"/></clipPath><clipPath id="id4"><path d="M 104 98 L 271 98 L 271 276 L 104 276 Z M 104 98 " clip-rule="nonzero"/></clipPath><clipPath id="id5"><path d="M 250.976562 77.886719 L 291.164062 115.070312 L 124.105469 295.644531 L 83.914062 258.460938 Z M 250.976562 77.886719 " clip-rule="nonzero"/></clipPath><clipPath id="id6"><path d="M 250.976562 77.886719 L 291.164062 115.070312 L 124.105469 295.644531 L 83.914062 258.460938 Z M 250.976562 77.886719 " clip-rule="nonzero"/></clipPath></defs><path fill="rgb(54.508972%, 14.898682%, 20.779419%)" d="M 12.121094 142.992188 C 12.121094 240.800781 187.5 360.101562 187.5 360.101562 C 187.5 360.101562 362.109375 239.960938 362.878906 142.992188 C 362.878906 92.925781 322.121094 52.128906 272.101562 52.128906 C 233.660156 52.128906 200.546875 76.777344 187.5 110.621094 C 174.453125 76.777344 141.339844 52.128906 102.898438 52.128906 C 52.878906 52.128906 12.121094 92.925781 12.121094 142.992188 " fill-opacity="1" fill-rule="nonzero"/><g clip-path="url(#id2)"><path fill="rgb(1.959229%, 8.628845%, 4.309082%)" d="M 230.761719 219.4375 L 188.265625 235.1875 L 145.769531 219.4375 L 145.769531 186.351562 L 186.933594 201.613281 C 187.363281 201.765625 187.808594 201.847656 188.265625 201.847656 C 188.722656 201.847656 189.167969 201.769531 189.597656 201.613281 L 230.761719 186.351562 Z M 233.679688 177.097656 C 233.539062 177.105469 233.398438 177.121094 233.257812 177.144531 L 188.265625 193.828125 L 143.273438 177.144531 C 143.132812 177.121094 142.992188 177.105469 142.851562 177.097656 L 113.472656 166.203125 L 188.265625 138.464844 L 263.058594 166.203125 Z M 233.679688 177.097656 " fill-opacity="1" fill-rule="nonzero"/></g><path fill="rgb(1.959229%, 8.628845%, 4.309082%)" d="M 122.539062 221.824219 C 122.035156 221.824219 121.546875 221.726562 121.078125 221.53125 C 120.609375 221.339844 120.195312 221.0625 119.835938 220.703125 C 119.476562 220.34375 119.199219 219.929688 119.003906 219.460938 C 118.8125 218.992188 118.714844 218.503906 118.714844 217.996094 L 118.714844 186.988281 C 118.714844 186.480469 118.8125 185.992188 119.003906 185.523438 C 119.199219 185.054688 119.476562 184.640625 119.835938 184.28125 C 120.195312 183.921875 120.609375 183.644531 121.078125 183.453125 C 121.546875 183.257812 122.035156 183.160156 122.539062 183.160156 C 123.046875 183.160156 123.535156 183.257812 124.003906 183.453125 C 124.472656 183.644531 124.886719 183.921875 125.246094 184.28125 C 125.605469 184.640625 125.882812 185.054688 126.074219 185.523438 C 126.269531 185.992188 126.367188 186.480469 126.367188 186.988281 L 126.367188 217.996094 C 126.367188 218.503906 126.269531 218.992188 126.074219 219.460938 C 125.882812 219.929688 125.605469 220.34375 125.246094 220.703125 C 124.886719 221.0625 124.472656 221.339844 124.003906 221.53125 C 123.535156 221.726562 123.046875 221.824219 122.539062 221.824219 Z M 122.539062 221.824219 " fill-opacity="1" fill-rule="nonzero"/><path fill="rgb(1.959229%, 8.628845%, 4.309082%)" d="M 122.539062 221.824219 C 121.945312 221.824219 121.351562 221.765625 120.765625 221.648438 C 120.179688 221.53125 119.613281 221.359375 119.058594 221.132812 C 118.507812 220.902344 117.984375 220.621094 117.488281 220.289062 C 116.992188 219.957031 116.53125 219.582031 116.109375 219.160156 C 115.6875 218.738281 115.3125 218.277344 114.980469 217.78125 C 114.648438 217.285156 114.367188 216.757812 114.140625 216.207031 C 113.910156 215.65625 113.738281 215.085938 113.621094 214.5 C 113.507812 213.914062 113.449219 213.324219 113.449219 212.726562 C 113.449219 212.128906 113.507812 211.539062 113.625 210.953125 C 113.742188 210.367188 113.914062 209.796875 114.144531 209.246094 C 114.371094 208.695312 114.652344 208.171875 114.984375 207.675781 C 115.316406 207.179688 115.695312 206.71875 116.117188 206.296875 C 116.539062 205.875 117 205.5 117.496094 205.167969 C 117.992188 204.835938 118.519531 204.558594 119.070312 204.328125 C 119.621094 204.101562 120.191406 203.929688 120.777344 203.8125 C 121.363281 203.695312 121.953125 203.640625 122.550781 203.640625 C 123.148438 203.640625 123.738281 203.699219 124.324219 203.816406 C 124.910156 203.933594 125.480469 204.109375 126.03125 204.335938 C 126.582031 204.566406 127.105469 204.847656 127.601562 205.179688 C 128.097656 205.511719 128.558594 205.890625 128.980469 206.3125 C 129.402344 206.734375 129.777344 207.195312 130.109375 207.691406 C 130.4375 208.1875 130.71875 208.714844 130.945312 209.265625 C 131.171875 209.816406 131.34375 210.386719 131.460938 210.972656 C 131.578125 211.558594 131.632812 212.148438 131.632812 212.746094 C 131.632812 213.34375 131.574219 213.933594 131.457031 214.519531 C 131.339844 215.105469 131.167969 215.671875 130.941406 216.222656 C 130.710938 216.773438 130.429688 217.300781 130.101562 217.792969 C 129.769531 218.289062 129.390625 218.75 128.96875 219.171875 C 128.546875 219.59375 128.085938 219.96875 127.589844 220.300781 C 127.09375 220.628906 126.570312 220.910156 126.019531 221.136719 C 125.46875 221.363281 124.898438 221.535156 124.3125 221.652344 C 123.726562 221.765625 123.136719 221.824219 122.539062 221.824219 Z M 122.539062 211.300781 C 122.351562 211.304688 122.167969 211.339844 121.996094 211.414062 C 121.820312 211.488281 121.667969 211.59375 121.535156 211.730469 C 121.402344 211.867188 121.296875 212.023438 121.226562 212.199219 C 121.15625 212.375 121.121094 212.558594 121.125 212.746094 C 121.125 214.324219 123.980469 214.277344 123.980469 212.746094 C 123.976562 212.558594 123.941406 212.375 123.867188 212.199219 C 123.792969 212.023438 123.6875 211.871094 123.554688 211.738281 C 123.417969 211.601562 123.265625 211.5 123.089844 211.425781 C 122.914062 211.355469 122.730469 211.316406 122.539062 211.316406 Z M 122.539062 211.300781 " fill-opacity="1" fill-rule="nonzero"/><g clip-path="url(#id3)"><path fill="rgb(96.078491%, 98.429871%, 93.728638%)" d="M 151.574219 134.191406 C 152.722656 135.226562 152.824219 137 151.789062 138.167969 C 150.753906 139.316406 148.976562 139.414062 147.8125 138.378906 C 147.792969 138.363281 147.777344 138.363281 147.777344 138.347656 L 106.175781 99.851562 C 105.699219 99.425781 104.976562 99.472656 104.550781 99.949219 C 104.125 100.425781 104.171875 101.167969 104.648438 101.578125 C 104.667969 101.59375 104.683594 101.609375 104.683594 101.625 L 144.953125 141.042969 C 146.054688 142.109375 146.070312 143.851562 145 144.953125 C 143.933594 146.035156 142.191406 146.054688 141.089844 145 C 141.074219 144.984375 141.058594 144.96875 141.058594 144.953125 L 101.644531 104.667969 C 101.25 104.15625 100.527344 104.074219 100.015625 104.453125 C 99.507812 104.847656 99.410156 105.570312 99.804688 106.078125 C 99.820312 106.113281 99.851562 106.144531 99.867188 106.160156 L 138.347656 147.746094 C 139.414062 148.894531 139.351562 150.671875 138.214844 151.738281 C 137.082031 152.789062 135.308594 152.738281 134.238281 151.589844 C 134.222656 151.589844 134.222656 151.574219 134.207031 151.558594 L 96.679688 110.054688 C 96.140625 109.398438 95.167969 109.332031 94.527344 109.875 C 93.886719 110.417969 93.804688 111.371094 94.332031 112.011719 L 136.34375 166.753906 C 139.234375 170.5 143.6875 172.703125 148.4375 172.71875 L 164.535156 172.71875 L 258.582031 275.226562 C 262.984375 280.023438 270.460938 280.351562 275.257812 275.964844 C 280.074219 271.5625 280.402344 264.085938 276 259.289062 C 275.769531 259.027344 275.523438 258.78125 275.257812 258.550781 L 172.753906 164.488281 L 172.753906 148.371094 C 172.734375 143.636719 170.535156 139.183594 166.769531 136.292969 L 112.042969 94.296875 C 111.371094 93.789062 110.417969 93.90625 109.890625 94.578125 C 109.414062 95.21875 109.496094 96.105469 110.089844 96.648438 L 151.574219 134.191406 " fill-opacity="1" fill-rule="nonzero"/></g><g clip-path="url(#id4)"><g clip-path="url(#id5)"><g clip-path="url(#id6)"><path fill="rgb(96.078491%, 98.429871%, 93.728638%)" d="M 207.617188 125.589844 C 203.171875 130.695312 200.707031 137.238281 200.667969 144.003906 C 200.628906 148.644531 201.320312 153.261719 202.726562 157.671875 C 203.65625 160.605469 202.867188 163.792969 200.664062 165.929688 L 108.242188 256.320312 C 103.855469 260.609375 103.75 267.65625 108.027344 272.058594 C 112.316406 276.445312 119.359375 276.550781 123.761719 272.277344 C 124.027344 271.992188 124.292969 271.703125 124.558594 271.417969 L 207.488281 172.242188 C 209.460938 169.894531 212.578125 168.859375 215.558594 169.542969 C 220.082031 170.621094 224.738281 170.949219 229.363281 170.550781 C 236.105469 169.984375 242.421875 167.003906 247.179688 162.195312 C 259.242188 149.914062 267.421875 134.320312 270.628906 117.40625 C 272.308594 108.597656 266.535156 100.121094 257.726562 98.4375 C 255.308594 97.992188 252.824219 98.074219 250.433594 98.722656 C 233.820312 103.234375 218.90625 112.597656 207.617188 125.589844 " fill-opacity="1" fill-rule="nonzero"/></g></g></g><g fill="rgb(1.959229%, 8.628845%, 4.309082%)" fill-opacity="1"><g transform="translate(142.699214, 303.357782)"><g><path d="M 2.921875 0 L 2.921875 -25.203125 L 11.171875 -25.203125 C 13.898438 -25.203125 15.953125 -24.632812 17.328125 -23.5 C 18.710938 -22.375 19.40625 -20.703125 19.40625 -18.484375 C 19.40625 -17.304688 19.066406 -16.265625 18.390625 -15.359375 C 17.722656 -14.453125 16.816406 -13.753906 15.671875 -13.265625 C 17.023438 -12.878906 18.097656 -12.148438 18.890625 -11.078125 C 19.679688 -10.015625 20.078125 -8.742188 20.078125 -7.265625 C 20.078125 -5.003906 19.34375 -3.226562 17.875 -1.9375 C 16.414062 -0.644531 14.347656 0 11.671875 0 Z M 6.25 -11.78125 L 6.25 -2.71875 L 11.734375 -2.71875 C 13.285156 -2.71875 14.503906 -3.117188 15.390625 -3.921875 C 16.285156 -4.722656 16.734375 -5.828125 16.734375 -7.234375 C 16.734375 -10.265625 15.082031 -11.78125 11.78125 -11.78125 Z M 6.25 -14.453125 L 11.265625 -14.453125 C 12.722656 -14.453125 13.882812 -14.816406 14.75 -15.546875 C 15.625 -16.273438 16.0625 -17.257812 16.0625 -18.5 C 16.0625 -19.882812 15.65625 -20.890625 14.84375 -21.515625 C 14.039062 -22.148438 12.816406 -22.46875 11.171875 -22.46875 L 6.25 -22.46875 Z M 6.25 -14.453125 "/></g></g></g><g fill="rgb(1.959229%, 8.628845%, 4.309082%)" fill-opacity="1"><g transform="translate(164.768434, 303.357782)"><g><path d="M 10.203125 0.34375 C 7.660156 0.34375 5.59375 -0.488281 4 -2.15625 C 2.40625 -3.820312 1.609375 -6.050781 1.609375 -8.84375 L 1.609375 -9.4375 C 1.609375 -11.289062 1.960938 -12.945312 2.671875 -14.40625 C 3.378906 -15.863281 4.367188 -17.003906 5.640625 -17.828125 C 6.921875 -18.660156 8.304688 -19.078125 9.796875 -19.078125 C 12.234375 -19.078125 14.125 -18.273438 15.46875 -16.671875 C 16.820312 -15.066406 17.5 -12.769531 17.5 -9.78125 L 17.5 -8.453125 L 4.8125 -8.453125 C 4.851562 -6.597656 5.390625 -5.101562 6.421875 -3.96875 C 7.460938 -2.832031 8.78125 -2.265625 10.375 -2.265625 C 11.5 -2.265625 12.453125 -2.492188 13.234375 -2.953125 C 14.023438 -3.421875 14.710938 -4.035156 15.296875 -4.796875 L 17.265625 -3.265625 C 15.691406 -0.859375 13.335938 0.34375 10.203125 0.34375 Z M 9.796875 -16.453125 C 8.503906 -16.453125 7.421875 -15.976562 6.546875 -15.03125 C 5.671875 -14.09375 5.128906 -12.773438 4.921875 -11.078125 L 14.296875 -11.078125 L 14.296875 -11.328125 C 14.203125 -12.953125 13.765625 -14.210938 12.984375 -15.109375 C 12.203125 -16.003906 11.140625 -16.453125 9.796875 -16.453125 Z M 9.796875 -16.453125 "/></g></g></g><g fill="rgb(1.959229%, 8.628845%, 4.309082%)" fill-opacity="1"><g transform="translate(183.548908, 303.357782)"><g><path d="M 11.484375 -15.859375 C 10.992188 -15.941406 10.46875 -15.984375 9.90625 -15.984375 C 7.800781 -15.984375 6.375 -15.085938 5.625 -13.296875 L 5.625 0 L 2.421875 0 L 2.421875 -18.734375 L 5.546875 -18.734375 L 5.59375 -16.5625 C 6.644531 -18.238281 8.132812 -19.078125 10.0625 -19.078125 C 10.6875 -19.078125 11.160156 -18.992188 11.484375 -18.828125 Z M 11.484375 -15.859375 "/></g></g></g><g fill="rgb(1.959229%, 8.628845%, 4.309082%)" fill-opacity="1"><g transform="translate(195.544181, 303.357782)"><g><path d="M 5.90625 0 L 2.703125 0 L 2.703125 -26.59375 L 5.90625 -26.59375 Z M 5.90625 0 "/></g></g></g><g fill="rgb(1.959229%, 8.628845%, 4.309082%)" fill-opacity="1"><g transform="translate(204.146853, 303.357782)"><g><path d="M 5.90625 0 L 2.703125 0 L 2.703125 -18.734375 L 5.90625 -18.734375 Z M 2.4375 -23.703125 C 2.4375 -24.222656 2.59375 -24.660156 2.90625 -25.015625 C 3.226562 -25.367188 3.703125 -25.546875 4.328125 -25.546875 C 4.953125 -25.546875 5.425781 -25.367188 5.75 -25.015625 C 6.070312 -24.660156 6.234375 -24.222656 6.234375 -23.703125 C 6.234375 -23.179688 6.070312 -22.742188 5.75 -22.390625 C 5.425781 -22.046875 4.953125 -21.875 4.328125 -21.875 C 3.703125 -21.875 3.226562 -22.046875 2.90625 -22.390625 C 2.59375 -22.742188 2.4375 -23.179688 2.4375 -23.703125 Z M 2.4375 -23.703125 "/></g></g></g><g fill="rgb(1.959229%, 8.628845%, 4.309082%)" fill-opacity="1"><g transform="translate(212.749525, 303.357782)"><g><path d="M 5.453125 -18.734375 L 5.5625 -16.375 C 6.988281 -18.175781 8.859375 -19.078125 11.171875 -19.078125 C 15.128906 -19.078125 17.125 -16.84375 17.15625 -12.375 L 17.15625 0 L 13.953125 0 L 13.953125 -12.390625 C 13.941406 -13.742188 13.632812 -14.742188 13.03125 -15.390625 C 12.425781 -16.035156 11.484375 -16.359375 10.203125 -16.359375 C 9.160156 -16.359375 8.242188 -16.082031 7.453125 -15.53125 C 6.671875 -14.976562 6.0625 -14.25 5.625 -13.34375 L 5.625 0 L 2.421875 0 L 2.421875 -18.734375 Z M 5.453125 -18.734375 "/></g></g></g></svg>